<?xml version="1.0" encoding="UTF-8"?>
<svg version="1.1" xmlns="http://www.w3.org/2000/svg" width="1024" height="1024">
<path d="M0 0 C1.04207863 -0.00235223 2.08415726 -0.00470446 3.15781403 -0.00712797 C6.65476516 -0.01379261 10.15167892 -0.01336051 13.64863586 -0.01294994 C16.17931328 -0.01625016 18.70999017 -0.01997606 21.24066639 -0.02409142 C27.46990409 -0.03305215 33.69913069 -0.03733626 39.92837395 -0.03961039 C47.39162728 -0.04257754 54.85487123 -0.05127809 62.31811963 -0.06002467 C80.35860291 -0.08085169 98.3990878 -0.09133708 116.4395803 -0.10015428 C124.98017875 -0.10436424 133.5207765 -0.10958584 142.06137436 -0.11483881 C171.31597972 -0.13272964 200.5705853 -0.14772315 229.82519531 -0.155159 C231.66128629 -0.15563375 233.49737728 -0.15610964 235.33346826 -0.15658666 C236.69923132 -0.15694122 236.69923132 -0.15694122 238.09258556 -0.15730295 C242.7054259 -0.15850411 247.31826623 -0.15971957 251.93110657 -0.16094494 C252.84652836 -0.16118509 253.76195015 -0.16142524 254.705112 -0.16167267 C284.36102669 -0.1695592 314.0169013 -0.19297738 343.6727985 -0.22550088 C375.05029877 -0.25984939 406.42777561 -0.27951489 437.80529499 -0.28280324 C441.25442824 -0.28322075 444.70356147 -0.28370031 448.1526947 -0.28422642 C449.00192524 -0.28434961 449.85115578 -0.2844728 450.72612058 -0.28459973 C464.35603522 -0.28692575 477.9859031 -0.30255247 491.61580111 -0.32306826 C505.3355554 -0.34339046 519.05525392 -0.34877351 532.77502048 -0.33929763 C540.91070631 -0.33410708 549.04620557 -0.33984334 557.1818643 -0.3618323 C563.28041047 -0.37705953 569.37877093 -0.37101269 575.4773165 -0.35716178 C577.92702029 -0.3547975 580.37674246 -0.35904711 582.82641828 -0.37099043 C637.27317369 -0.6197685 685.13703485 19.82073842 724.14985657 57.50922108 C730.1432597 63.62619954 735.35057869 70.27936261 740.46235657 77.13422108 C741.08755188 77.96437733 741.71274719 78.79453358 742.35688782 79.64984608 C752.59012063 93.74151093 760.12674546 108.96008934 766.46235657 125.13422108 C766.72387512 125.79599354 766.98539368 126.457766 767.25483704 127.13959217 C773.99251621 144.55656297 777.62538062 164.02671199 777.59657764 182.67186451 C777.59892987 183.71394314 777.6012821 184.75602177 777.60370561 185.82967854 C777.61037025 189.32662967 777.60993816 192.82354343 777.60952759 196.32050037 C777.61282781 198.85117779 777.61655371 201.38185468 777.62066907 203.9125309 C777.62962979 210.14176859 777.6339139 216.3709952 777.63618803 222.60023846 C777.63915518 230.06349179 777.64785573 237.52673574 777.65660231 244.98998414 C777.67742934 263.03046742 777.68791472 281.07095231 777.69673192 299.11144481 C777.70094189 307.65204326 777.70616348 316.19264101 777.71141645 324.73323887 C777.72930729 353.98784423 777.74430079 383.24244981 777.75173664 412.49705982 C777.75221139 414.3331508 777.75268728 416.16924179 777.7531643 418.00533277 C777.75351887 419.37109583 777.75351887 419.37109583 777.75388059 420.76445007 C777.75508175 425.37729041 777.75629721 429.99013074 777.75752258 434.60297108 C777.75776273 435.51839287 777.75800288 436.43381466 777.75825031 437.3769765 C777.76613685 467.03289119 777.78955502 496.68876581 777.82207853 526.34466301 C777.85642703 557.72216328 777.87609253 589.09964012 777.87938088 620.4771595 C777.87979839 623.92629275 777.88027795 627.37542598 777.88080406 630.82455921 C777.88092725 631.67378975 777.88105045 632.52302029 777.88117737 633.39798509 C777.8835034 647.02789973 777.89913012 660.65776761 777.91964591 674.28766562 C777.9399681 688.00741991 777.94535115 701.72711843 777.93587527 715.44688499 C777.93068473 723.58257082 777.93642099 731.71807008 777.95840995 739.85372881 C777.97363717 745.95227498 777.96759034 752.05063544 777.95373943 758.14918101 C777.95137514 760.5988848 777.95562476 763.04860697 777.96756808 765.49828279 C778.21697087 820.08176494 757.71833457 867.98033465 719.83735657 907.00922108 C700.50491491 925.78028512 677.41979033 939.35807995 652.46235657 949.13422108 C651.80058411 949.39573963 651.13881165 949.65725819 650.45698547 949.92670155 C633.04001467 956.66438072 613.56986566 960.29724513 594.92471313 960.26844215 C593.88263451 960.27079438 592.84055588 960.27314661 591.76689911 960.27557012 C588.26994797 960.28223476 584.77303421 960.28180266 581.27607727 960.2813921 C578.74539986 960.28469232 576.21472297 960.28841822 573.68404675 960.29253358 C567.45480905 960.3014943 561.22558244 960.30577841 554.99633918 960.30805254 C547.53308585 960.31101969 540.0698419 960.31972024 532.6065935 960.32846682 C514.56611023 960.34929385 496.52562533 960.35977923 478.48513284 960.36859643 C469.94453439 960.3728064 461.40393664 960.37802799 452.86333878 960.38328096 C423.60873341 960.4011718 394.35412784 960.4161653 365.09951782 960.42360115 C363.26342684 960.4240759 361.42733586 960.42455179 359.59124488 960.42502881 C358.22548181 960.42538338 358.22548181 960.42538338 356.83212757 960.4257451 C352.21928724 960.42694626 347.6064469 960.42816172 342.99360657 960.42938709 C342.07818478 960.42962724 341.16276298 960.42986739 340.21960114 960.43011482 C310.56368645 960.43800136 280.90781184 960.46141953 251.25191464 960.49394304 C219.87441436 960.52829154 188.49693752 960.54795704 157.11941814 960.55124539 C153.6702849 960.5516629 150.22115166 960.55214246 146.77201843 960.55266857 C145.92278789 960.55279176 145.07355735 960.55291495 144.19859255 960.55304188 C130.56867791 960.55536791 116.93881003 960.57099463 103.30891202 960.59151042 C89.58915773 960.61183261 75.86945921 960.61721566 62.14969265 960.60773978 C54.01400683 960.60254924 45.87850756 960.6082855 37.74284883 960.63027446 C31.64430266 960.64550168 25.54594221 960.63945485 19.44739664 960.62560394 C16.99769285 960.62323965 14.54797067 960.62748927 12.09829485 960.63943259 C-9.77347304 960.73936905 -30.78517258 958.25067711 -51.53764343 951.13422108 C-52.53368591 950.79801746 -52.53368591 950.79801746 -53.54985046 950.45502186 C-90.32515448 937.87703349 -122.30984896 914.17671078 -145.53764343 883.13422108 C-146.16412781 882.30277576 -146.79061218 881.47133045 -147.43608093 880.61468983 C-164.32261169 857.34616035 -175.31854276 830.34112855 -180.53764343 802.13422108 C-180.70774355 801.25860818 -180.87784366 800.38299529 -181.05309832 799.48084867 C-183.09404023 787.44547854 -182.82210748 775.39734585 -182.80506897 763.22641468 C-182.80880901 760.69055813 -182.81341194 758.15470274 -182.81879961 755.61884916 C-182.82845846 750.1209146 -182.83195051 744.62303037 -182.82988739 739.12508869 C-182.82682674 730.94870146 -182.83518493 722.77235292 -182.84563664 714.59597323 C-182.86494421 699.13873128 -182.87060368 683.68150263 -182.87175076 668.22425003 C-182.8726712 656.28161373 -182.87679496 644.33898262 -182.88315201 632.396348 C-182.88494721 628.95382194 -182.88672684 625.51129588 -182.88850176 622.06876981 C-182.88894386 621.21284467 -182.88938596 620.35691954 -182.88984145 619.47505727 C-182.90214441 595.40957002 -182.91004315 571.34408456 -182.90915489 547.27859402 C-182.90912373 546.37188156 -182.90909258 545.46516911 -182.90906048 544.53098052 C-182.90889427 539.93580884 -182.90869619 535.34063716 -182.90849106 530.74546547 C-182.90845117 529.83291613 -182.90841128 528.92036679 -182.90837018 527.98016444 C-182.90828931 526.13476707 -182.90820571 524.28936969 -182.9081194 522.44397232 C-182.90689459 493.74906751 -182.92189636 465.05421001 -182.94926453 436.35931873 C-182.98003079 404.08862754 -182.99719424 371.81796742 -182.99533808 339.54726064 C-182.99518883 336.10159103 -182.99509141 332.65592142 -182.99502945 329.21025181 C-182.99500614 328.36190027 -182.99498283 327.51354873 -182.99495882 326.63948957 C-182.99489744 313.02664497 -183.00763298 299.41384165 -183.02489398 285.8010093 C-183.04190391 272.10214713 -183.04378259 258.40334491 -183.03067534 244.70447798 C-183.0233214 236.58209581 -183.02683673 228.45989663 -183.04656002 220.33753411 C-183.06008599 214.24913225 -183.05235289 208.16094216 -183.03681357 202.07253747 C-183.03376128 199.62705266 -183.03730827 197.18154763 -183.04853372 194.73608668 C-183.28167388 140.29334163 -162.84846743 92.45679072 -125.16264343 53.44672108 C-119.04566497 47.45331794 -112.3925019 42.24599895 -105.53764343 37.13422108 C-104.70748718 36.50902576 -103.87733093 35.88383045 -103.02201843 35.23968983 C-88.93035358 25.00645702 -73.71177517 17.46983218 -57.53764343 11.13422108 C-56.87587097 10.87270252 -56.21409851 10.61118397 -55.53227234 10.34174061 C-38.11530154 3.60406143 -18.64515252 -0.02880298 0 0 Z " fill="#E8E2D5" transform="translate(214.5376434326172,31.865778923034668)"/>
<path d="M0 0 C1.14704948 -0.00397774 1.14704948 -0.00397774 2.31727168 -0.00803584 C4.90064442 -0.01574511 7.48396976 -0.01628863 10.06735325 -0.01688576 C11.9299256 -0.02089933 13.79249708 -0.02533737 15.6550675 -0.03016531 C20.79003439 -0.04214876 25.92499188 -0.04778338 31.05997002 -0.05234647 C36.59190211 -0.05829597 42.12382292 -0.06990755 47.65574741 -0.08063698 C61.02508046 -0.10517766 74.39441725 -0.11979146 87.7637659 -0.13269705 C91.53922469 -0.13640805 95.31468311 -0.14038136 99.09014153 -0.14444971 C122.52874135 -0.1696875 145.96734214 -0.1917596 169.40595245 -0.20417786 C174.83707717 -0.20709916 180.26820185 -0.21006668 185.69932652 -0.21308327 C186.37407249 -0.21345418 187.04881846 -0.21382509 187.74401128 -0.21420723 C209.61144392 -0.22635755 231.47879598 -0.25729233 253.34619078 -0.29900479 C276.46770012 -0.34302897 299.58917151 -0.36871484 322.71072775 -0.37409842 C335.31350382 -0.37751272 347.91615281 -0.38927016 360.51888943 -0.42220116 C371.25301471 -0.45020316 381.98698688 -0.46120031 392.72114586 -0.4500057 C398.19707125 -0.44481932 403.672676 -0.44770487 409.1485548 -0.47247124 C414.16573991 -0.49497332 419.18237423 -0.49421609 424.19956905 -0.47526737 C426.01059022 -0.47246872 427.82164881 -0.47805833 429.63260984 -0.4930803 C442.74811114 -0.59518486 453.91475758 0.70018513 463.84751987 10.26201439 C473.05235497 20.16856337 476.20446956 29.45413943 476.09141636 42.93608665 C476.09681934 44.17820412 476.10222233 45.42032158 476.10778904 46.70007896 C476.11809543 50.08104572 476.11063785 53.46102068 476.09407783 56.84189916 C476.08010985 60.40535664 476.08670146 63.96878774 476.09021091 67.5322628 C476.0929063 73.52144596 476.07950404 79.51042798 476.05626011 85.49956322 C476.02973976 92.37960201 476.0278786 99.25930297 476.03964847 106.13937527 C476.05051561 112.80290174 476.0441644 119.46630851 476.03009319 126.12982559 C476.02440156 128.94317527 476.02436148 131.75643534 476.02915859 134.56978607 C476.05212701 152.66530351 475.78748531 169.94916892 469.46470737 187.13701439 C469.16612827 187.96459251 468.86754917 188.79217064 468.55992222 189.64482689 C456.67979389 221.43860254 432.78716997 247.28117912 401.93809605 261.43681908 C383.68206222 269.50435837 365.50756109 272.29373216 345.63079929 272.27745628 C344.47704436 272.28042741 343.32328942 272.28339853 342.13457221 272.28645968 C338.29514687 272.29508347 334.45575294 272.29664954 330.6163187 272.2981472 C327.85251275 272.30224683 325.08871001 272.30778512 322.32490635 272.31319237 C314.83505448 272.32671394 307.345208 272.33279032 299.85534596 272.33720303 C295.17075155 272.33997514 290.48615916 272.34421413 285.80156612 272.3487072 C272.80751297 272.36089027 259.81346143 272.37119246 246.81940269 272.37458229 C245.98948003 272.37480186 245.15955737 272.37502142 244.30448554 272.37524764 C243.05679479 272.37557506 243.05679479 272.37557506 241.78389817 272.37590909 C240.09864382 272.37635254 238.41338946 272.3767991 236.72813511 272.37724876 C235.89220861 272.37747019 235.05628212 272.37769162 234.19502451 272.37791976 C220.6559018 272.38186623 207.11683296 272.39931995 193.57773105 272.42260829 C179.64651054 272.44637597 165.71531701 272.45878655 151.78407592 272.45995021 C143.97455955 272.46086376 136.16511346 272.46653541 128.35561657 272.48476982 C121.70539635 272.50024396 115.05526815 272.50524836 108.40503333 272.49703172 C105.01864317 272.49315127 101.63258709 272.495591 98.24619579 272.50808907 C84.7025613 272.55511958 71.77440585 272.50330327 58.58970737 269.13701439 C57.69823915 268.91110241 56.80677092 268.68519043 55.8882885 268.45243263 C53.81845912 267.89935007 51.80395634 267.26808726 49.77720737 266.57451439 C48.67771763 266.20096825 48.67771763 266.20096825 47.55601597 265.81987572 C33.71588979 260.87781076 20.83804209 253.58026716 9.58970737 244.13701439 C8.73248081 243.41900658 7.87525425 242.70099876 6.99205112 241.96123314 C-19.06301922 219.28889218 -33.4574851 189.36864354 -36.41029263 155.13701439 C-36.93053854 145.45570803 -36.8821412 135.75904839 -36.87904263 126.06670189 C-36.8835193 124.019794 -36.88968187 121.97289536 -36.89590979 119.92599213 C-36.91493705 113.52754625 -36.91809959 107.12923075 -36.91126919 100.73076439 C-36.90459652 94.17176263 -36.9276688 87.61331859 -36.96458292 81.05442989 C-36.99539289 75.36973699 -37.00662921 69.68522293 -37.00274611 64.00044835 C-37.00069553 60.62764042 -37.00819261 57.2556173 -37.03063869 53.88282967 C-37.05289956 50.12970708 -37.04309273 46.37792732 -37.025527 42.62480736 C-37.03879025 41.53367134 -37.05205349 40.44253532 -37.06571865 39.31833458 C-36.95068982 28.68168176 -33.57897157 19.53525669 -26.16029263 11.81279564 C-25.58279263 11.25978783 -25.00529263 10.70678001 -24.41029263 10.13701439 C-23.91529263 9.65619408 -23.42029263 9.17537376 -22.91029263 8.67998314 C-16.19911614 2.64357168 -8.8922636 -0.0148869 0 0 Z " fill="#A31E21" transform="translate(292.41029262542725,495.8629856109619)"/>
<path d="M0 0 C9.51633615 -0.46975545 18.61633701 2.38613909 25.9609375 8.51171875 C34.62439621 16.57511106 39.80549923 25.23771329 40.42504883 37.33691406 C40.46560471 39.9391855 40.48043295 42.54195543 40.47265625 45.14453125 C40.48580752 46.53987758 40.50112209 47.93520501 40.51847839 49.33050537 C40.5579423 52.9603705 40.56849344 56.58973336 40.57250977 60.2197876 C40.58191515 63.94094716 40.61937377 67.66182043 40.65429688 71.3828125 C40.71847798 78.65234695 40.75204076 85.92158215 40.765625 93.19140625 C44.39376947 95.08174917 48.04534011 96.92166623 51.703125 98.75390625 C52.72470703 99.28693359 53.74628906 99.81996094 54.79882812 100.36914062 C62.60085793 104.23276561 67.56144536 104.9261328 75.765625 102.19140625 C87.62418479 101.26551269 96.48904951 103.71248525 105.765625 111.19140625 C112.66854007 117.5224822 116.77413411 124.93974568 117.390625 134.37890625 C117.09760375 140.1102512 115.84796379 145.34549267 114.37109375 150.859375 C114.11165482 151.84038177 113.85221588 152.82138855 113.58491516 153.8321228 C109.64080784 168.58699512 105.36670669 183.25262736 101.14068604 197.92858887 C99.31427881 204.27148309 97.49050015 210.61512673 95.67051125 216.95986557 C95.04018677 219.15450246 94.40735819 221.34840632 93.77433777 223.54226685 C93.38940845 224.88247638 93.00458124 226.22271525 92.61987305 227.56298828 C92.28489304 228.72605499 91.94991302 229.8891217 91.6047821 231.08743286 C90.88186301 233.76145138 90.30886978 236.47518237 89.765625 239.19140625 C98.015625 239.19140625 106.265625 239.19140625 114.765625 239.19140625 C114.765625 239.52140625 114.765625 239.85140625 114.765625 240.19140625 C-31.754375 240.19140625 -178.274375 240.19140625 -329.234375 240.19140625 C-329.234375 239.86140625 -329.234375 239.53140625 -329.234375 239.19140625 C-320.324375 239.19140625 -311.414375 239.19140625 -302.234375 239.19140625 C-303.03875 235.93265625 -303.843125 232.67390625 -304.671875 229.31640625 C-307.51397 217.6113991 -310.05093623 205.84927527 -312.546875 194.06640625 C-315.47581625 180.24162979 -318.51634566 166.45178425 -321.734375 152.69140625 C-325.4548288 136.78213657 -328.93681245 120.82878979 -332.31640625 104.84375 C-332.58772118 103.56309914 -332.58772118 103.56309914 -332.86451721 102.25657654 C-333.19959163 100.67327818 -333.53331889 99.08969377 -333.86534119 97.50575256 C-334.61800327 93.94527551 -335.42184538 90.41221477 -336.33105469 86.88818359 C-338.84783872 76.58841498 -338.02835638 66.23216015 -333.015625 56.9296875 C-325.00063543 43.81627401 -313.82762412 38.92445419 -299.546875 35.12890625 C-297.3341249 34.52530592 -295.12192118 33.91970036 -292.91015625 33.3125 C-291.08991943 32.81339111 -291.08991943 32.81339111 -289.23291016 32.30419922 C-282.37333836 30.40650533 -275.54428212 28.40090143 -268.71072388 26.41204834 C-256.22111038 22.77744691 -243.72918622 19.15512397 -231.1887207 15.69897461 C-225.74133421 14.19380576 -220.3198645 12.62421644 -214.91015625 10.98828125 C-213.66314941 10.61662842 -212.41614258 10.24497559 -211.13134766 9.86206055 C-208.74026023 9.14775583 -206.3528461 8.42097838 -203.97021484 7.67895508 C-193.19783249 4.48528852 -182.73843292 3.59588091 -172.234375 8.19140625 C-160.21200219 14.71670728 -153.36311439 23.63357062 -149.4609375 36.6875 C-148.91597601 38.6649412 -148.38258832 40.64559978 -147.859375 42.62890625 C-147.56756348 43.70076172 -147.27575195 44.77261719 -146.97509766 45.87695312 C-144.47498971 55.11758753 -142.09630803 64.39089925 -139.71923828 73.66381836 C-137.99515252 80.36272107 -136.1571421 87.00492279 -134.14794922 93.62304688 C-131.8054848 101.4401418 -129.84393038 109.35750189 -127.8203125 117.26171875 C-126.23067903 123.44055495 -124.58805134 129.58663216 -122.734375 135.69140625 C-120.16697478 144.14671099 -118.01159581 152.70260361 -115.8203125 161.26171875 C-114.23067903 167.44055495 -112.58805134 173.58663216 -110.734375 179.69140625 C-108.17143532 188.13202092 -106.01658743 196.67236116 -103.83349609 205.21777344 C-101.80325403 213.1222123 -99.60096236 220.94530389 -97.1796875 228.73828125 C-96.234375 232.19140625 -96.234375 232.19140625 -95.234375 239.19140625 C-77.744375 239.19140625 -60.254375 239.19140625 -42.234375 239.19140625 C-44.544375 231.60140625 -46.854375 224.01140625 -49.234375 216.19140625 C-50.43091156 211.86108345 -51.60875579 207.53882702 -52.734375 203.19140625 C-54.94851819 194.80415617 -57.30414843 186.48110943 -59.859375 178.19140625 C-60.14820557 177.24426758 -60.43703613 176.29712891 -60.73461914 175.32128906 C-62.05040757 171.01070157 -63.38879588 166.71094631 -64.78515625 162.42578125 C-68.45150478 150.81213822 -71.3887651 136.74063637 -66.609375 125.00390625 C-65.49609375 123.03515625 -65.49609375 123.03515625 -64.234375 121.19140625 C-63.78707031 120.50046875 -63.33976562 119.80953125 -62.87890625 119.09765625 C-57.22226029 110.96907118 -49.92711861 104.80530586 -40.234375 102.19140625 C-33.36684685 101.41989597 -25.70286047 100.97416418 -19.12890625 103.28125 C-14.89952437 104.61113661 -11.44683592 104.20488649 -7.39990234 102.35107422 C-5.53512802 101.33091261 -3.72677152 100.25139292 -1.921875 99.12890625 C4.54639423 95.19140625 4.54639423 95.19140625 6.765625 95.19140625 C6.65827027 87.38555813 6.54566722 79.57980518 6.42628574 71.77413273 C6.37102403 68.14999045 6.317599 64.52584015 6.26831055 60.90161133 C6.22071468 57.40673526 6.1683739 53.91196005 6.11268425 50.4172039 C6.08226087 48.42906802 6.05680518 46.44085816 6.03138733 44.45265198 C6.01144211 43.25148239 5.99149689 42.05031281 5.97094727 40.81274414 C5.95540298 39.7490712 5.9398587 38.68539825 5.92384338 37.5894928 C6.03333948 35.23944697 6.03333948 35.23944697 4.765625 34.19140625 C1.80745393 33.94135239 1.80745393 33.94135239 -1.234375 34.19140625 C-3.99972417 36.95675542 -3.48793369 38.61687159 -3.5078125 42.484375 C-3.5284375 43.75474609 -3.5490625 45.02511719 -3.5703125 46.33398438 C-3.60017145 49.01122839 -3.61450522 51.68775453 -3.625 54.36523438 C-3.84981133 66.73610244 -3.84981133 66.73610244 -8.234375 72.19140625 C-12.48025585 75.81904321 -17.65036597 76.85158054 -23.12890625 76.578125 C-28.68877099 75.55692535 -32.14598424 71.65241513 -35.234375 67.19140625 C-36.40501104 63.67949813 -36.43388669 60.46986781 -36.47265625 56.8125 C-36.480728 56.08579605 -36.48879974 55.3590921 -36.49711609 54.61036682 C-36.51094194 53.06961437 -36.52167081 51.52883149 -36.52954102 49.98803711 C-36.5410056 48.4277231 -36.56136908 46.86744658 -36.59106445 45.30737305 C-36.8394677 32.24746806 -35.23678617 22.19177524 -26.234375 12.19140625 C-18.5774929 4.27551757 -10.91664052 0.93516676 0 0 Z " fill="#C69540" transform="translate(619.234375,255.80859375)"/>
<path d="M0 0 C2.85333124 2.197943 3.59416625 4.28474333 4.4296875 7.7265625 C4.66486084 8.66661133 4.90003418 9.60666016 5.14233398 10.57519531 C5.38411377 11.58163086 5.62589355 12.58806641 5.875 13.625 C6.40280257 15.73751633 6.93276399 17.84949441 7.46484375 19.9609375 C7.72507324 20.99831055 7.98530273 22.03568359 8.25341797 23.10449219 C9.21938271 26.85084335 10.30786557 30.55037705 11.4375 34.25 C14.02188987 42.78926365 16.20137873 51.42764013 18.41381836 60.06933594 C20.00352381 66.24850071 21.64622602 72.39490435 23.5 78.5 C26.06740022 86.95530474 28.22277919 95.51119736 30.4140625 104.0703125 C32.00369597 110.2491487 33.64632366 116.39522591 35.5 122.5 C37.71063615 129.78036172 39.61294421 137.12974388 41.5 144.5 C43.41410746 151.97142506 45.34300071 159.42537405 47.5625 166.8125 C49.55851503 173.45780014 51.4634443 180.12469224 53.3125 186.8125 C53.5794165 187.76294189 53.84633301 188.71338379 54.12133789 189.69262695 C54.3661792 190.58425537 54.61102051 191.47588379 54.86328125 192.39453125 C55.08282471 193.18706299 55.30236816 193.97959473 55.52856445 194.79614258 C56 197 56 197 56 201 C9.8 201 -36.4 201 -84 201 C-88.455 180.21 -88.455 180.21 -93 159 C-96.36328169 144.42547053 -96.36328169 144.42547053 -99.74609375 129.85546875 C-102.54171932 117.78842519 -105.11101805 105.67304681 -107.67553711 93.55517578 C-109.50939614 84.89981002 -111.37758152 76.25528982 -113.34375 67.62890625 C-113.53202866 66.79915787 -113.72030731 65.96940948 -113.91429138 65.11451721 C-114.80378431 61.19602278 -115.70114428 57.27968313 -116.61352539 53.36645508 C-116.93153005 51.9709519 -117.24917735 50.57536723 -117.56640625 49.1796875 C-117.84427979 47.98069824 -118.12215332 46.78170898 -118.40844727 45.54638672 C-119.09625781 41.42292986 -119.44860884 38.17121787 -119 34 C-115.63480933 30.96179303 -111.39966656 30.07442717 -107.0859375 28.87109375 C-106.07405617 28.58532974 -106.07405617 28.58532974 -105.04173279 28.29379272 C-102.82131545 27.66830217 -100.598204 27.05300475 -98.375 26.4375 C-96.81057163 25.99842089 -95.24636599 25.55854751 -93.68237305 25.11791992 C-90.42469251 24.20082222 -87.16607508 23.28716977 -83.90673828 22.37597656 C-76.93805165 20.42517835 -69.98043809 18.43574256 -63.02310181 16.44491577 C-60.81728461 15.8138688 -58.61118524 15.18381663 -56.4050293 14.55395508 C-47.82504291 12.10303949 -39.25248095 9.62794554 -30.6875 7.125 C-29.72642334 6.84495117 -28.76534668 6.56490234 -27.77514648 6.27636719 C-23.72398442 5.09479321 -19.67589066 3.90556751 -15.63671875 2.68359375 C-13.77466797 2.12865234 -13.77466797 2.12865234 -11.875 1.5625 C-10.86179687 1.25441406 -9.84859375 0.94632812 -8.8046875 0.62890625 C-5.71392087 -0.06414866 -3.1553879 -0.31903506 0 0 Z " fill="#E8E2D5" transform="translate(434,294)"/>
<path d="M0 0 C11.54445452 8.30712071 16.1103502 18.12785974 19.6875 31.6875 C19.97931152 32.75935547 20.27112305 33.83121094 20.57177734 34.93554688 C23.07188529 44.17618128 25.45056697 53.449493 27.82763672 62.72241211 C29.55172248 69.42131482 31.3897329 76.06351654 33.39892578 82.68164062 C35.7413902 90.49873555 37.70294462 98.41609564 39.7265625 106.3203125 C41.31619597 112.4991487 42.95882366 118.64522591 44.8125 124.75 C47.37990022 133.20530474 49.53527919 141.76119736 51.7265625 150.3203125 C53.31619597 156.4991487 54.95882366 162.64522591 56.8125 168.75 C59.37563896 177.19127097 61.53139133 185.73215078 63.71337891 194.27856445 C65.73501912 202.15340324 67.93452429 209.94208406 70.3671875 217.69921875 C71.3125 221.25 71.3125 221.25 72.3125 229.25 C-4.9075 229.25 -82.1275 229.25 -161.6875 229.25 C-161.6875 228.92 -161.6875 228.59 -161.6875 228.25 C-152.7775 228.25 -143.8675 228.25 -134.6875 228.25 C-135.491875 224.99125 -136.29625 221.7325 -137.125 218.375 C-139.967095 206.66999285 -142.50406123 194.90786902 -145 183.125 C-147.92894125 169.30022354 -150.96947066 155.510378 -154.1875 141.75 C-157.9079538 125.84073032 -161.38993745 109.88738354 -164.76953125 93.90234375 C-165.04084618 92.62169289 -165.04084618 92.62169289 -165.31764221 91.31517029 C-165.65271663 89.73187193 -165.98644389 88.14828752 -166.31846619 86.56434631 C-167.07112827 83.00386926 -167.87497038 79.47080852 -168.78417969 75.94677734 C-171.30096372 65.64700873 -170.48148138 55.2907539 -165.46875 45.98828125 C-157.45376043 32.87486776 -146.28074912 27.98304794 -132 24.1875 C-129.7872499 23.58389967 -127.57504618 22.97829411 -125.36328125 22.37109375 C-124.14979004 22.03835449 -122.93629883 21.70561523 -121.68603516 21.36279297 C-114.82646336 19.46509908 -107.99740712 17.45949518 -101.16384888 15.47064209 C-88.67423538 11.83604066 -76.18231122 8.21371772 -63.6418457 4.75756836 C-58.19445921 3.25239951 -52.7729895 1.68281019 -47.36328125 0.046875 C-46.11627441 -0.32477783 -44.86926758 -0.69643066 -43.58447266 -1.0793457 C-41.19338523 -1.79365042 -38.8059711 -2.52042787 -36.42333984 -3.26245117 C-23.63516516 -7.05373563 -11.54291991 -7.29231764 0 0 Z M-33.9375 30.3125 C-42.45312229 32.99221738 -50.99408038 35.46888797 -59.625 37.75 C-69.9437717 40.48732174 -80.197225 43.40170238 -90.4375 46.41796875 C-98.63453588 48.83033739 -106.85457712 51.1621276 -115.07373047 53.49780273 C-117.26050302 54.12029953 -119.44657633 54.74525958 -121.63183594 55.37304688 C-123.63834798 55.94890108 -125.64677555 56.51813029 -127.65722656 57.08007812 C-128.55666992 57.33724609 -129.45611328 57.59441406 -130.3828125 57.859375 C-131.56254639 58.19146973 -131.56254639 58.19146973 -132.76611328 58.53027344 C-134.88714707 59.1735587 -134.88714707 59.1735587 -136.6875 61.25 C-137.05616923 67.04421849 -136.29439128 72.20888944 -135.03515625 77.84765625 C-134.85999985 78.66193588 -134.68484344 79.47621552 -134.50437927 80.31517029 C-133.92791896 82.9828352 -133.339241 85.6476315 -132.75 88.3125 C-132.33939185 90.1978183 -131.92924296 92.08323668 -131.51953125 93.96875 C-128.66441482 107.05272536 -125.67219127 120.1039972 -122.628479 133.14520264 C-119.2932655 147.44047651 -116.16325563 161.77387004 -113.1328125 176.13671875 C-109.45022597 193.54013928 -105.54747848 210.88009685 -101.6875 228.25 C-55.4875 228.25 -9.2875 228.25 38.3125 228.25 C37.6350914 222.12392648 37.6350914 222.12392648 36.33203125 216.3046875 C36.14068604 215.63211914 35.94934082 214.95955078 35.75219727 214.26660156 C35.54522217 213.55987305 35.33824707 212.85314453 35.125 212.125 C34.67122595 210.53403915 34.21813133 208.94288439 33.765625 207.3515625 C33.52779297 206.52043945 33.28996094 205.68931641 33.04492188 204.83300781 C31.78736769 200.39803339 30.58293202 195.94869636 29.375 191.5 C28.86595767 189.63018866 28.35684251 187.76039715 27.84765625 185.890625 C27.59387207 184.95798828 27.34008789 184.02535156 27.07861328 183.06445312 C25.82501869 178.45915088 24.568638 173.85460902 23.3125 169.25 C22.81248622 167.41667042 22.31248623 165.58333709 21.8125 163.75 C21.565 162.8425 21.3175 161.935 21.0625 161 C0.8125 86.75 0.8125 86.75 0.06225586 83.99902344 C-0.43687523 82.16893028 -0.93606127 80.33885211 -1.43530273 78.50878906 C-2.95516023 72.93713528 -4.47304628 67.36494984 -5.98901367 61.79223633 C-6.73721807 59.04689987 -7.48963599 56.30274122 -8.2421875 53.55859375 C-9.20676167 50.03538007 -10.14728398 46.50697076 -11.0703125 42.97265625 C-11.40083618 41.72887207 -11.40083618 41.72887207 -11.73803711 40.45996094 C-12.15069075 38.90677629 -12.55565274 37.35151939 -12.95141602 35.79394531 C-14.16117179 30.72430726 -14.16117179 30.72430726 -17.6875 27.25 C-23.37246414 26.40423079 -28.59729245 28.58108149 -33.9375 30.3125 Z " fill="#C69540" transform="translate(451.6875,266.75)"/>
<path d="M0 0 C1.12253174 0.53826416 2.24506348 1.07652832 3.40161133 1.63110352 C4.00749588 1.91728043 4.61338043 2.20345734 5.23762512 2.49830627 C7.15830613 3.40812373 9.07098682 4.33345789 10.98364258 5.26000977 C12.90852024 6.1794944 14.83489967 7.0957539 16.76179504 8.01100159 C18.50390742 8.8405325 20.24229091 9.67788109 21.98046875 10.515625 C26.66832635 12.69147705 30.58467518 13.00542736 35.67114258 13.01000977 C36.73268555 13.02837891 36.73268555 13.02837891 37.81567383 13.04711914 C41.98803963 13.05877379 45.00503242 12.49350431 48.79614258 10.82250977 C50.11614258 10.82250977 51.43614258 10.82250977 52.79614258 10.82250977 C52.19161303 16.89637726 50.92844561 22.47600732 49.2199707 28.32788086 C48.95808456 29.24267212 48.69619843 30.15746338 48.42637634 31.09997559 C47.56583007 34.10032958 46.69676196 37.09813908 45.82739258 40.09594727 C45.2254032 42.1870908 44.62388843 44.27837101 44.02282715 46.36978149 C42.76552934 50.74001427 41.504329 55.10909404 40.23999023 59.47729492 C38.61700942 65.08479113 37.00101146 70.69426823 35.38755035 76.30451012 C33.84916885 81.6523784 32.30708043 86.99917567 30.76489258 92.34594727 C30.47010513 93.36934582 30.17531769 94.39274437 29.87159729 95.447155 C29.0405685 98.3298739 28.20687766 101.2118085 27.37231445 104.09350586 C27.12501083 104.95271637 26.87770721 105.81192688 26.62290955 106.69717407 C24.91085336 112.5930882 24.91085336 112.5930882 23.79614258 114.82250977 C3.00614258 114.82250977 -17.78385742 114.82250977 -39.20385742 114.82250977 C-45.90202858 91.68418331 -45.90202858 91.68418331 -48.75268555 81.79907227 C-50.69590956 75.06075781 -52.6404278 68.3228363 -54.59277344 61.5871582 C-56.16715442 56.15516615 -57.73562865 50.72150021 -59.30006599 45.28663635 C-59.8971977 43.21606575 -60.49643553 41.14610131 -61.09783745 39.07676697 C-61.94145725 36.17264013 -62.77748284 33.26642528 -63.61181641 30.35961914 C-63.86069107 29.50941193 -64.10956573 28.65920471 -64.36598206 27.78323364 C-65.7894038 22.78893314 -66.6905004 17.99246532 -67.20385742 12.82250977 C-65.51635742 11.26000977 -65.51635742 11.26000977 -63.20385742 9.82250977 C-60.31454558 10.05677829 -57.93579904 10.91744711 -55.20385742 11.88500977 C-44.64691199 14.89144423 -34.48372306 12.81727356 -25.07006836 7.65161133 C-20.29517652 4.95887541 -20.29517652 4.95887541 -15.57226562 2.17651367 C-14.83580811 1.74516113 -14.09935059 1.31380859 -13.34057617 0.86938477 C-12.68790771 0.47589844 -12.03523926 0.08241211 -11.36279297 -0.32299805 C-7.256675 -1.94817196 -4.08968543 -1.50305211 0 0 Z " fill="#E8E2D5" transform="translate(650.203857421875,380.177490234375)"/>
<path d="M0 0 C9.06985635 7.72113283 16.41383091 17.84294275 18.17578125 29.875 C18.9245083 39.37719343 19.14768347 49.04016046 15.17578125 57.875 C14.78519531 58.76316406 14.39460937 59.65132812 13.9921875 60.56640625 C8.73629844 71.27174403 0.11003284 79.93953965 -10.82421875 84.875 C-11.81421875 84.875 -12.80421875 84.875 -13.82421875 84.875 C-13.8085083 85.83801025 -13.79279785 86.80102051 -13.77661133 87.79321289 C-13.72200066 91.3919222 -13.68775649 94.99059543 -13.65942383 98.58959961 C-13.6444077 100.1423968 -13.62398847 101.69515209 -13.59790039 103.24780273 C-13.56119802 105.48952624 -13.54442088 107.73068539 -13.53125 109.97265625 C-13.51576614 110.65836197 -13.50028229 111.34406769 -13.48432922 112.05055237 C-13.48214674 118.40900333 -15.07915831 122.86146872 -19.26171875 127.6875 C-23.88046299 131.63033045 -27.3041778 132.32852821 -33.2890625 132.1875 C-38.66613332 131.52468696 -41.82512171 129.13701731 -45.19921875 124.875 C-47.39857956 120.81464158 -47.9473179 117.63543025 -48.0012207 113.04980469 C-48.01405594 112.0949115 -48.02689117 111.14001831 -48.04011536 110.15618896 C-48.04750229 109.13011536 -48.05488922 108.10404175 -48.0625 107.046875 C-48.07057175 105.98390198 -48.07864349 104.92092896 -48.08695984 103.82574463 C-48.10078301 101.57639183 -48.11151305 99.32701822 -48.11938477 97.07763672 C-48.13658515 93.65161016 -48.18048699 90.2265519 -48.22460938 86.80078125 C-48.23473805 84.61198624 -48.2432536 82.42318305 -48.25 80.234375 C-48.26750809 79.21639832 -48.28501617 78.19842163 -48.30305481 77.14959717 C-48.28406495 70.86954152 -47.45167777 66.10304135 -43.82421875 60.875 C-39.31095291 56.47745892 -34.97231981 55.05550975 -28.88671875 54.0625 C-23.81306918 53.09465031 -21.34230237 51.6569399 -17.82421875 47.875 C-15.42068353 43.83269077 -15.1419301 39.47607477 -15.82421875 34.875 C-17.23866036 30.45263193 -19.50593346 27.70970919 -23.51171875 25.375 C-28.10150333 23.39207631 -32.05985798 23.507452 -36.82421875 24.875 C-41.77468283 27.35023204 -43.93909754 29.69091668 -45.82421875 34.875 C-46.15954426 36.70429608 -46.47012762 38.53822512 -46.76171875 40.375 C-47.56394223 45.10490965 -48.47930708 48.26601636 -51.82421875 51.875 C-56.60989387 55.20099208 -60.94896452 56.71432203 -66.82421875 55.875 C-72.09786809 54.01780146 -75.75264982 51.66664753 -78.82421875 46.875 C-82.00590672 37.32993608 -79.90783907 26.79352984 -75.82421875 17.875 C-68.91801595 4.39233353 -58.67675305 -3.36097165 -44.8125 -8.93359375 C-29.79446129 -13.65727187 -12.29016442 -9.24737129 0 0 Z " fill="#C59440" transform="translate(542.82421875,549.125)"/>
<path d="M0 0 C5.20884425 2.90680821 7.76424037 6.52047443 9.7734375 12.1640625 C10.32967642 15.98046818 10.32090677 19.74203078 10.29101562 23.59375 C10.2980249 24.71348206 10.30503418 25.83321411 10.31225586 26.98687744 C10.32979452 30.67119484 10.31822692 34.35473791 10.3046875 38.0390625 C10.30738358 40.60921373 10.31126696 43.17936397 10.31628418 45.74951172 C10.32217368 51.12934044 10.31401809 56.50888064 10.29492188 61.88867188 C10.2731561 68.09182578 10.2802087 74.29445366 10.3022275 80.49759483 C10.32262715 86.48628321 10.32039122 92.47471605 10.30870056 98.46343994 C10.30603731 101.00229975 10.30928885 103.54117303 10.31861877 106.08001709 C10.3288076 109.63182848 10.31324872 113.18263798 10.29101562 116.734375 C10.29911255 117.7777301 10.30720947 118.82108521 10.31555176 119.89605713 C10.23289053 127.04492453 9.13527885 132.7086367 3.94921875 138.0390625 C-1.13987052 141.11172017 -5.30812399 142.15413586 -11.2265625 141.1640625 C-16.90132363 139.19972211 -20.54056581 135.53605588 -23.2265625 130.1640625 C-23.32756272 128.5812567 -23.36599002 126.99427024 -23.37373352 125.40826416 C-23.38088882 124.4044873 -23.38804413 123.40071045 -23.39541626 122.36651611 C-23.39810516 121.26104431 -23.40079407 120.15557251 -23.40356445 119.01660156 C-23.41013565 117.8555188 -23.41670685 116.69443604 -23.42347717 115.49816895 C-23.44324584 111.64200787 -23.45488069 107.7858858 -23.46484375 103.9296875 C-23.46891928 102.61510307 -23.4729948 101.30051865 -23.47719383 99.94609833 C-23.49624801 93.70652087 -23.51047751 87.46695525 -23.5188058 81.22735429 C-23.528574 74.02795101 -23.55488124 66.82885554 -23.59530669 59.62956071 C-23.62548724 54.06344031 -23.64027657 48.49740804 -23.64358681 42.93120742 C-23.64593552 39.60758797 -23.65684831 36.28437215 -23.68004799 32.96082306 C-23.70434091 29.24999883 -23.70349182 25.53998062 -23.6965332 21.82910156 C-23.70934326 20.73172668 -23.72215332 19.63435181 -23.73535156 18.50372314 C-23.69353513 12.39094375 -23.32331708 8.80816389 -19.2265625 4.1640625 C-13.62149128 -0.89417251 -7.26642378 -2.72809595 0 0 Z " fill="#C69440" transform="translate(693.2265625,539.8359375)"/>
<path d="M0 0 C3.83084349 2.61193874 6.65161815 5.67823629 8.75 9.875 C8.85100022 11.4578058 8.88942752 13.04479226 8.89717102 14.63079834 C8.90432632 15.6345752 8.91148163 16.63835205 8.91885376 17.67254639 C8.92154266 18.77801819 8.92423157 19.88348999 8.92700195 21.02246094 C8.93685875 22.76408508 8.93685875 22.76408508 8.94691467 24.54089355 C8.96668334 28.39705463 8.97831819 32.2531767 8.98828125 36.109375 C8.99235678 37.42395943 8.9964323 38.73854385 9.00063133 40.09296417 C9.01968551 46.33254163 9.03391501 52.57210725 9.0422433 58.81170821 C9.0520115 66.01111149 9.07831874 73.21020696 9.11874419 80.40950179 C9.14892474 85.97562219 9.16371407 91.54165446 9.16702431 97.10785508 C9.16937302 100.43147453 9.18028581 103.75469035 9.20348549 107.07823944 C9.22777841 110.78906367 9.22692932 114.49908188 9.2199707 118.20996094 C9.23278076 119.30733582 9.24559082 120.40471069 9.25878906 121.53533936 C9.21697263 127.64811875 8.84675458 131.23089861 4.75 135.875 C0.06709005 140.10104069 -3.63916083 141.3118622 -9.8359375 141.2109375 C-14.01922152 140.62879765 -17.3138345 138.8929003 -20.25 135.875 C-24.29527478 129.26231719 -24.82703385 124.10667039 -24.76757812 116.4453125 C-24.7745874 115.32558044 -24.78159668 114.20584839 -24.78881836 113.05218506 C-24.80635702 109.36786766 -24.79478942 105.68432459 -24.78125 102 C-24.78394608 99.42984877 -24.78782946 96.85969853 -24.79284668 94.28955078 C-24.79873618 88.90972206 -24.79058059 83.53018186 -24.77148438 78.15039062 C-24.7497186 71.94723672 -24.7567712 65.74460884 -24.77879 59.54146767 C-24.79918965 53.55277929 -24.79695372 47.56434645 -24.78526306 41.57562256 C-24.78259981 39.03676275 -24.78585135 36.49788947 -24.79518127 33.95904541 C-24.8053701 30.40723402 -24.78981122 26.85642452 -24.76757812 23.3046875 C-24.77567505 22.2613324 -24.78377197 21.21797729 -24.79211426 20.14300537 C-24.70945303 12.99413797 -23.61184135 7.3304258 -18.42578125 2 C-12.1617994 -1.78202677 -6.94818876 -2.40514226 0 0 Z " fill="#C69440" transform="translate(345.25,540.125)"/>
<path d="M0 0 C4.08496293 3.23392898 6.60971849 5.67521762 7.37890625 10.99609375 C7.62957271 16.95548663 7.13461124 20.79340376 3 25.375 C-1.47573281 29.77660962 -6.31995836 30.88840596 -12.234375 32.390625 C-13.22697327 32.65131775 -14.21957153 32.9120105 -15.24224854 33.18060303 C-17.33861395 33.72779049 -19.43662821 34.26869459 -21.53613281 34.80371094 C-24.72947957 35.6197561 -27.91551344 36.46065534 -31.1015625 37.3046875 C-33.14544295 37.83484065 -35.18970265 38.36353425 -37.234375 38.890625 C-38.65046051 39.2655307 -38.65046051 39.2655307 -40.09515381 39.64801025 C-46.45007792 41.24590792 -53.09810926 42.70421553 -59.48828125 40.52734375 C-63.99397127 37.52676645 -67.31587694 34.64841033 -69 29.375 C-69.78582992 24.68457767 -69.51294026 21.40088052 -67.375 17.125 C-61.24210876 10.02375751 -56.31952688 8.27497006 -47.25 6.375 C-45.00061081 5.87549872 -42.75191357 5.37287156 -40.50390625 4.8671875 C-39.39934082 4.6206543 -38.29477539 4.37412109 -37.15673828 4.12011719 C-33.53495523 3.26523073 -29.98591418 2.24705123 -26.42407227 1.17358398 C-8.47940333 -4.23077598 -8.47940333 -4.23077598 0 0 Z " fill="#C69540" transform="translate(412,312.625)"/>
<path d="M0 0 C3.78403441 3.25602961 6.10967906 6.57903719 7.6875 11.3125 C8.8002572 30.55036008 8.8002572 30.55036008 3.12890625 37.1171875 C-0.73886361 40.60702559 -4.12262436 41.77380907 -9.3125 42.0625 C-14.50237564 41.77380907 -17.88613639 40.60702559 -21.75390625 37.1171875 C-27.1912722 30.82129009 -26.94245495 23.02540387 -26.6640625 15.109375 C-26.09059065 8.91587899 -24.38805628 5.33483689 -19.875 0.9375 C-13.07647906 -3.37375718 -7.24799734 -3.69237601 0 0 Z " fill="#C59340" transform="translate(521.3125,704.6875)"/>
</svg>
